<?xml version="1.0" standalone="no"?>
<!DOCTYPE svg PUBLIC "-//W3C//DTD SVG 20010904//EN"
 "http://www.w3.org/TR/2001/REC-SVG-20010904/DTD/svg10.dtd">
<svg version="1.0" xmlns="http://www.w3.org/2000/svg"
 width="512.000000pt" height="512.000000pt" viewBox="0 0 512.000000 512.000000"
 preserveAspectRatio="xMidYMid meet">
<metadata>
Created by potrace 1.14, written by Peter Selinger 2001-2017
</metadata>
<g transform="translate(0.000000,512.000000) scale(0.100000,-0.100000)"
fill="#000000" stroke="none">
<path d="M1880 5105 c-7 -8 -23 -15 -36 -15 -12 0 -26 -4 -29 -10 -3 -5 -15
-10 -26 -10 -10 0 -29 -5 -42 -12 -46 -24 -57 -28 -71 -28 -8 0 -19 -6 -23
-13 -4 -6 -20 -18 -35 -26 -15 -8 -36 -22 -47 -32 -29 -27 -81 -105 -81 -122
0 -8 -7 -20 -15 -27 -8 -7 -13 -16 -10 -20 3 -4 -2 -13 -10 -20 -8 -7 -15 -27
-15 -44 0 -18 -4 -36 -9 -41 -5 -6 -11 -21 -13 -35 -2 -20 -14 -29 -63 -46
-51 -18 -67 -20 -110 -12 -75 16 -286 21 -298 9 -6 -6 -19 -11 -29 -11 -10 0
-18 -4 -18 -10 0 -5 -4 -10 -9 -10 -17 0 -134 -85 -170 -122 -19 -21 -41 -38
-48 -38 -7 0 -13 -7 -13 -15 0 -8 -4 -15 -8 -15 -4 0 -15 -12 -24 -27 -10 -16
-29 -41 -44 -58 -14 -16 -30 -39 -35 -50 -5 -11 -18 -35 -29 -53 -17 -28 -21
-53 -23 -172 -1 -100 2 -143 11 -152 6 -6 12 -27 12 -45 0 -18 5 -33 10 -33 6
0 10 -6 10 -14 0 -16 27 -29 41 -20 14 8 11 37 -7 62 -9 13 -14 34 -12 47 3
14 0 26 -8 29 -11 4 -14 34 -14 130 0 103 3 125 16 130 8 3 12 11 8 17 -3 6
-3 14 2 18 5 3 26 32 47 65 23 35 42 55 48 49 10 -10 27 -84 38 -168 5 -33 25
-107 46 -165 67 -188 98 -290 92 -296 -4 -4 -14 -1 -23 7 -9 8 -27 12 -40 11
-13 -2 -24 1 -24 7 0 15 -22 14 -59 -5 -26 -13 -30 -19 -20 -30 6 -8 29 -14
51 -14 45 0 133 -26 146 -44 5 -6 50 -132 101 -281 77 -226 88 -266 69 -249
-13 11 -39 35 -58 53 -19 17 -47 39 -62 49 -22 13 -28 24 -28 52 0 19 -7 44
-15 54 -8 11 -15 37 -15 57 0 21 -4 41 -10 44 -6 3 -10 14 -10 24 0 10 -36 54
-79 97 -44 43 -82 88 -85 100 -7 26 -45 39 -53 18 -10 -26 18 -66 99 -145 56
-54 78 -83 78 -100 0 -14 4 -29 9 -35 5 -5 11 -30 13 -55 l5 -47 -36 25 c-20
13 -43 32 -53 41 -37 37 -81 62 -107 62 -10 0 -21 7 -25 15 -4 12 -24 15 -90
15 -51 0 -88 -4 -92 -11 -3 -6 -17 -9 -30 -6 -14 2 -27 0 -30 -4 -3 -5 -23 -9
-44 -9 -21 0 -42 -4 -45 -10 -3 -5 -21 -10 -38 -10 -38 -1 -67 -20 -67 -45 0
-14 5 -16 28 -10 15 3 44 9 65 12 20 3 40 9 43 14 3 5 78 9 167 9 145 0 165
-2 187 -20 14 -11 31 -20 38 -20 6 0 12 -4 12 -10 0 -14 81 -88 113 -102 26
-12 28 -17 26 -66 -3 -61 12 -85 37 -60 9 9 19 29 23 46 l6 30 93 -87 c50 -47
92 -89 92 -93 0 -5 -13 -8 -29 -8 -16 0 -34 -7 -42 -16 -8 -10 -26 -14 -51
-13 -21 2 -43 -2 -50 -9 -18 -18 -88 -16 -88 2 0 8 4 18 10 21 14 8 13 42 -1
51 -14 8 -47 -32 -51 -61 -3 -21 -22 -26 -153 -41 -27 -3 -60 -10 -72 -16 -17
-8 -37 -8 -78 2 -31 7 -58 17 -61 22 -3 4 -13 8 -24 8 -10 0 -21 7 -24 16 -3
8 -10 12 -16 9 -5 -3 -10 -2 -10 4 0 6 -16 18 -36 27 -20 9 -60 39 -89 66 -29
26 -56 48 -59 48 -3 0 -6 -10 -6 -23 0 -24 66 -94 130 -138 44 -30 120 -69
135 -69 6 0 16 -5 22 -11 6 -6 44 -11 84 -11 45 0 75 4 77 11 4 11 102 16 102
6 0 -14 -108 -115 -123 -115 -9 0 -19 -4 -22 -10 -3 -5 -17 -10 -29 -10 -13 0
-29 -7 -36 -15 -7 -8 -29 -15 -50 -15 -58 0 -131 -44 -115 -70 10 -16 44 -12
73 9 15 10 47 21 72 24 69 8 104 19 113 33 4 8 16 14 27 14 10 0 52 37 97 84
l78 85 85 11 c47 7 103 14 124 17 22 3 46 12 54 20 38 38 56 3 163 -319 l53
-157 -45 -58 c-24 -32 -50 -70 -58 -85 -15 -30 -66 -46 -98 -33 -22 10 -94 23
-199 37 l-82 10 -76 84 c-42 46 -91 90 -109 97 -57 25 -103 37 -137 37 -20 0
-46 10 -66 25 -35 27 -59 32 -69 14 -17 -26 63 -79 119 -79 19 0 38 -4 41 -10
3 -6 16 -10 29 -10 13 0 36 -7 52 -15 30 -14 144 -124 131 -126 -42 -4 -90 0
-99 9 -18 18 -143 15 -158 -2 -6 -8 -19 -12 -27 -9 -9 4 -21 0 -27 -8 -6 -8
-28 -23 -48 -32 -43 -20 -134 -89 -165 -126 -22 -25 -31 -71 -15 -71 5 0 21
14 38 31 34 36 177 139 193 139 11 0 21 4 78 34 38 20 79 21 90 2 5 -8 31 -16
63 -19 123 -13 155 -21 158 -42 4 -29 37 -69 51 -61 14 9 15 43 1 51 -5 3 -10
13 -10 22 0 12 8 14 43 9 23 -3 65 -8 92 -12 28 -3 54 -10 60 -15 5 -5 24 -9
42 -9 18 0 33 -4 33 -9 0 -5 -25 -31 -56 -58 -30 -26 -72 -65 -91 -85 -20 -21
-39 -38 -43 -38 -4 0 -10 14 -14 32 -16 79 -56 67 -56 -17 0 -48 -3 -55 -29
-72 -16 -10 -49 -36 -73 -58 -105 -98 -95 -95 -276 -95 -96 0 -163 4 -167 10
-3 6 -18 10 -33 10 -15 0 -36 7 -46 15 -25 19 -56 19 -56 0 0 -27 33 -55 66
-55 17 0 34 -3 38 -7 23 -23 318 -44 331 -23 3 6 15 10 26 10 18 0 58 18 69
31 3 3 33 29 67 58 l62 51 -6 -53 c-3 -28 -9 -56 -14 -62 -5 -5 -9 -18 -9 -30
0 -26 -52 -90 -99 -119 -50 -32 -104 -136 -70 -136 18 0 49 20 49 33 0 7 36
47 80 91 54 53 80 86 80 102 0 12 4 26 10 29 6 3 10 24 10 45 0 21 7 45 15 54
8 8 15 28 15 45 0 28 29 71 48 71 4 0 21 12 37 28 17 15 63 58 104 95 67 61
77 67 105 61 17 -3 35 -10 41 -15 5 -5 19 -9 32 -9 13 0 26 -7 29 -15 4 -8 12
-15 18 -15 7 0 34 -11 61 -24 l48 -25 49 -133 c52 -146 52 -146 50 -265 l-2
-83 -34 0 c-19 0 -38 -4 -41 -10 -3 -5 -19 -10 -34 -10 -16 0 -34 -6 -40 -14
-7 -8 -20 -12 -30 -9 -9 2 -23 -3 -30 -11 -8 -9 -23 -16 -35 -16 -26 0 -76
-22 -76 -32 0 -12 -38 -10 -45 2 -3 6 -19 10 -35 10 -16 0 -32 5 -35 10 -3 6
-19 10 -35 10 -16 0 -35 7 -44 15 -18 18 -126 21 -144 3 -19 -19 -84 -38 -134
-38 -49 0 -68 -14 -49 -33 14 -14 126 -13 144 1 35 28 225 29 243 1 3 -5 14
-9 25 -9 10 0 19 -7 19 -15 0 -10 -10 -15 -29 -15 -17 0 -33 -4 -36 -10 -3 -5
-19 -10 -34 -10 -16 0 -34 -7 -41 -15 -7 -8 -18 -15 -26 -15 -24 0 -102 -88
-133 -151 -18 -35 -40 -77 -51 -94 -10 -16 -19 -42 -19 -57 -1 -15 -6 -30 -11
-33 -6 -3 -10 -24 -10 -46 0 -26 -5 -42 -15 -45 -9 -4 -15 -19 -15 -38 0 -18
-7 -41 -15 -52 -14 -19 -15 -18 -35 6 -11 14 -20 29 -20 34 0 5 -11 24 -25 41
-13 18 -22 35 -19 37 2 3 -2 11 -11 18 -12 10 -15 37 -15 131 0 68 4 120 10
124 6 3 10 22 10 41 0 19 4 34 9 34 15 0 24 61 11 73 -17 17 -60 -39 -60 -78
0 -17 -5 -36 -12 -43 -15 -15 -13 -281 2 -296 5 -5 10 -18 10 -27 0 -9 7 -19
15 -23 8 -3 15 -14 15 -24 0 -10 8 -27 18 -38 10 -10 31 -37 47 -59 61 -80
186 -188 253 -216 17 -8 32 -20 32 -26 0 -7 8 -13 18 -13 10 0 23 -5 29 -11 7
-7 51 -9 129 -6 141 6 189 14 205 33 6 8 21 14 34 14 29 0 38 10 24 27 -15 18
-74 17 -89 -2 -7 -8 -24 -15 -38 -15 -14 0 -40 -5 -59 -12 -53 -19 -191 2
-235 35 -19 15 -42 27 -50 27 -8 0 -32 16 -54 35 l-39 34 36 1 c20 0 42 7 49
15 7 9 29 15 51 15 21 0 41 5 44 10 3 6 23 10 43 11 20 0 51 9 67 19 17 11 58
33 92 50 34 17 65 35 68 40 4 6 10 8 14 5 5 -2 30 20 57 51 34 38 48 62 46 78
-2 12 4 29 12 36 9 7 16 20 16 29 0 26 24 71 35 68 6 -2 11 -19 13 -38 2 -19
8 -38 13 -44 12 -12 12 -162 -1 -170 -6 -3 -10 -17 -10 -30 0 -13 -4 -27 -10
-30 -15 -9 -12 -111 3 -124 19 -15 27 -4 27 40 0 21 4 41 10 44 5 3 10 19 10
34 0 15 5 32 11 38 14 14 16 207 2 225 -20 25 -39 153 -24 162 6 4 11 18 11
31 0 13 5 27 10 30 5 3 10 19 10 35 0 15 7 30 15 34 9 3 15 18 15 35 0 16 5
33 10 36 6 3 10 17 10 31 0 39 18 64 45 64 21 0 27 -8 44 -62 10 -35 58 -173
105 -307 47 -135 86 -246 86 -248 0 -2 -6 -3 -14 -3 -7 0 -19 -7 -26 -15 -7
-8 -26 -15 -42 -15 -38 0 -76 -26 -158 -110 -36 -36 -74 -70 -85 -76 -29 -16
-24 -29 13 -32 29 -3 40 4 100 66 81 84 121 112 158 112 15 0 35 7 45 16 16
14 18 14 27 -3 13 -24 1 -49 -47 -103 -23 -25 -41 -53 -41 -62 0 -9 -4 -20
-10 -23 -13 -8 -13 -302 0 -310 6 -3 10 -24 10 -45 0 -21 5 -42 10 -45 6 -3
10 -21 10 -39 0 -19 7 -39 15 -46 17 -14 20 -56 5 -65 -5 -3 -10 -1 -10 4 0 6
-6 11 -14 11 -20 0 -137 62 -160 86 -12 11 -28 33 -36 50 -8 16 -22 41 -32 56
-10 14 -18 36 -18 47 0 12 -7 24 -15 27 -9 4 -15 19 -15 38 0 18 -4 36 -9 41
-5 6 -11 23 -13 40 -2 19 -9 31 -20 33 -15 3 -18 -4 -18 -47 0 -27 5 -53 10
-56 6 -3 10 -21 10 -39 0 -19 7 -39 15 -46 8 -7 13 -16 10 -20 -3 -5 -1 -11 4
-14 5 -3 21 -29 36 -58 35 -67 76 -108 143 -143 29 -15 55 -31 57 -36 3 -4 12
-6 19 -3 7 3 19 -2 26 -11 7 -8 23 -15 36 -15 12 0 26 -4 29 -10 3 -5 19 -10
35 -10 16 0 32 -5 35 -10 9 -14 328 -13 342 1 6 6 52 15 102 21 67 6 124 21
213 53 130 48 121 48 177 -2 13 -11 33 -25 45 -31 11 -5 41 -19 64 -31 39 -19
61 -21 202 -21 95 0 161 4 165 10 3 6 19 10 35 10 16 0 32 5 35 10 3 6 17 10
29 10 13 0 29 7 36 15 7 9 19 14 26 11 7 -3 16 -1 19 4 3 5 33 22 65 37 33 16
60 32 60 37 0 4 11 16 24 27 13 10 35 42 50 71 15 29 36 67 46 83 10 17 19 42
19 58 1 15 5 35 10 45 5 9 12 24 15 33 7 26 128 62 179 54 23 -3 93 -9 156
-11 115 -6 154 2 174 33 4 7 15 13 24 13 37 0 206 142 268 225 17 22 38 49 48
59 9 11 17 27 17 37 0 9 7 19 15 23 8 3 15 14 15 24 0 10 5 23 10 28 15 15 17
281 2 296 -7 7 -12 26 -12 44 0 17 -10 44 -21 58 -20 25 -23 26 -38 11 -15
-14 -15 -18 2 -46 9 -17 17 -43 17 -59 0 -16 5 -32 10 -35 6 -4 10 -57 10
-125 0 -68 -4 -121 -10 -125 -6 -3 -10 -15 -10 -26 0 -10 -6 -19 -12 -20 -7 0
-24 -23 -38 -51 -29 -59 -44 -68 -60 -38 -8 16 -9 30 -1 52 26 73 4 166 -103
452 -14 37 -26 72 -26 77 0 5 27 7 59 6 60 -2 90 11 77 32 -4 6 -27 11 -50 11
-24 0 -59 7 -78 15 -33 13 -38 21 -78 137 -23 68 -62 179 -87 247 -24 68 -41
126 -38 129 3 3 15 -4 28 -16 13 -12 28 -22 34 -22 6 0 13 -7 17 -15 3 -8 12
-15 20 -15 9 0 16 -15 20 -42 15 -113 19 -134 27 -143 5 -5 9 -19 9 -31 0 -13
29 -50 80 -100 44 -44 80 -85 80 -92 0 -19 48 -38 62 -24 9 9 7 16 -5 30 -9
10 -17 24 -17 30 0 15 -50 72 -63 72 -19 0 -97 93 -97 115 0 12 -4 25 -9 30
-5 6 -11 33 -14 62 l-6 51 86 -69 c50 -40 96 -69 109 -69 13 0 26 -4 29 -10
12 -20 283 -3 327 21 10 5 30 9 46 9 29 0 62 29 62 55 0 8 -9 15 -20 15 -11 0
-20 -5 -20 -11 0 -5 -4 -7 -10 -4 -5 3 -10 1 -10 -4 0 -6 -15 -11 -34 -11 -19
0 -38 -4 -41 -10 -4 -6 -71 -10 -169 -10 -160 0 -164 0 -190 25 -15 14 -29 25
-32 25 -4 0 -61 50 -110 98 -7 6 -17 12 -23 12 -7 0 -11 22 -11 54 0 86 -47
101 -69 22 l-8 -31 -45 47 c-25 27 -50 48 -55 48 -10 0 -43 63 -43 82 0 21 35
37 82 38 26 0 50 5 53 10 10 16 85 12 85 -4 0 -8 -4 -18 -10 -21 -14 -8 -13
-42 1 -51 14 -8 47 32 51 61 3 21 28 27 161 41 36 4 61 12 64 20 7 19 48 18
86 -2 57 -30 67 -34 78 -34 17 0 160 -102 192 -137 16 -18 33 -33 38 -33 26 0
-11 95 -41 105 -9 3 -29 17 -46 32 -16 16 -51 39 -77 52 -26 13 -52 30 -58 38
-6 7 -22 13 -35 13 -12 0 -26 4 -29 10 -9 14 -138 13 -153 -2 -9 -9 -57 -13
-99 -9 -4 1 19 28 52 61 33 33 65 58 72 56 6 -3 14 2 17 10 3 8 18 14 35 14
16 0 33 5 36 10 3 6 25 10 49 10 34 0 50 7 81 33 60 52 25 81 -39 32 -20 -15
-46 -25 -66 -25 -34 0 -80 -12 -137 -37 -18 -7 -67 -51 -109 -98 l-77 -84 -66
-6 c-36 -3 -82 -10 -101 -15 -19 -5 -53 -11 -75 -14 l-41 -6 -31 93 c-17 50
-56 165 -87 254 -54 156 -56 163 -39 181 10 11 35 45 56 76 34 49 42 56 72 56
18 0 40 -6 47 -14 14 -14 22 -15 186 -37 87 -11 94 -14 114 -43 36 -53 121
-136 140 -136 9 0 21 -6 25 -14 8 -14 35 -22 113 -35 59 -10 90 -21 90 -32 0
-13 47 -11 55 1 16 26 -57 70 -117 70 -25 0 -41 5 -44 15 -4 8 -17 15 -30 15
-34 0 -85 31 -138 85 -25 25 -46 48 -46 50 0 12 101 4 105 -7 6 -16 142 -15
158 1 6 6 16 11 22 11 7 0 31 10 56 23 106 54 209 144 209 184 0 13 -3 23 -6
23 -3 0 -30 -22 -59 -48 -29 -27 -69 -57 -89 -66 -20 -9 -36 -21 -36 -27 0 -6
-4 -8 -9 -5 -5 3 -11 -1 -15 -9 -3 -8 -14 -15 -25 -15 -11 0 -22 -4 -25 -8 -3
-5 -30 -15 -61 -22 -41 -10 -61 -10 -78 -2 -12 6 -44 13 -72 16 -126 14 -137
18 -160 61 -13 21 -28 41 -34 43 -17 6 -26 -28 -13 -49 7 -10 12 -23 12 -29 0
-14 -73 -13 -88 2 -7 7 -29 11 -50 9 -25 -1 -43 3 -51 13 -8 9 -29 16 -50 16
l-36 0 100 94 100 94 6 -30 c8 -37 22 -51 45 -46 15 3 20 14 22 59 2 46 7 57
27 69 13 8 46 35 72 61 96 91 91 89 271 89 89 0 163 -4 166 -9 3 -5 23 -11 43
-14 21 -3 50 -9 66 -12 22 -6 27 -4 27 10 0 25 -29 44 -67 45 -17 0 -35 5 -38
10 -3 6 -24 10 -45 10 -21 0 -41 4 -44 9 -3 4 -16 6 -30 4 -13 -3 -27 0 -30 6
-4 7 -41 11 -92 11 -66 0 -86 -3 -90 -15 -4 -8 -15 -15 -26 -15 -22 0 -53 -20
-136 -87 -29 -24 -54 -43 -56 -43 -7 0 7 95 15 105 5 5 9 20 9 34 0 17 22 46
80 100 44 42 80 81 80 86 0 4 7 17 16 27 13 14 14 21 5 32 -16 19 -50 8 -57
-18 -3 -12 -41 -57 -85 -100 -43 -43 -79 -87 -79 -97 0 -10 -4 -20 -9 -23 -4
-3 -11 -29 -13 -58 -3 -29 -10 -54 -15 -55 -5 -2 -7 -18 -5 -36 3 -29 -1 -36
-35 -59 -21 -15 -60 -47 -88 -73 -133 -122 -148 -133 -182 -128 -18 3 -38 11
-44 19 -6 8 -18 14 -25 14 -8 0 -22 4 -32 9 -9 5 -31 15 -48 21 -30 11 -35 21
-100 208 -42 122 -69 219 -72 255 l-4 57 29 0 c16 0 38 7 49 15 10 8 29 15 41
15 12 0 25 5 28 10 3 6 19 10 35 10 16 0 32 5 35 10 3 6 19 10 34 10 16 0 40
11 55 25 30 28 51 32 63 11 4 -7 22 -16 38 -20 17 -4 48 -12 70 -18 59 -15
165 -21 189 -10 56 26 81 32 125 32 61 0 75 22 29 44 -23 12 -35 13 -44 5 -7
-6 -24 -9 -37 -7 -13 1 -30 -2 -38 -8 -41 -34 -180 -32 -256 2 -41 18 -42 34
-4 34 16 0 34 7 41 15 7 8 23 15 36 15 12 0 26 5 29 10 3 6 15 10 25 10 26 0
120 94 120 120 0 11 3 20 8 20 4 0 15 17 25 38 10 20 26 51 36 67 11 17 20 42
20 57 1 15 6 30 11 33 6 3 10 23 10 44 0 21 6 44 14 50 7 6 16 30 19 52 9 68
21 67 68 -3 24 -34 50 -74 56 -87 16 -28 18 -257 3 -266 -5 -3 -10 -20 -10
-36 0 -17 -7 -37 -15 -45 -20 -20 -19 -53 2 -61 23 -9 53 32 53 71 0 18 6 38
12 44 15 15 14 302 0 311 -5 3 -12 13 -16 21 -15 32 -35 63 -60 95 -15 19 -26
36 -24 38 2 2 -9 15 -24 29 -16 14 -28 30 -28 37 0 6 -4 11 -10 11 -5 0 -29
20 -53 45 -25 25 -48 45 -52 45 -3 0 -27 15 -53 32 -110 76 -122 80 -251 75
-119 -5 -171 -12 -206 -27 -11 -4 -28 -11 -37 -14 -10 -3 -18 -12 -18 -21 0
-17 68 -22 98 -6 77 41 274 34 336 -12 17 -12 43 -29 58 -36 15 -8 37 -25 49
-38 l22 -23 -36 0 c-20 0 -39 -4 -42 -10 -3 -5 -23 -10 -44 -10 -22 0 -44 -6
-51 -15 -7 -8 -28 -15 -46 -15 -18 0 -49 -9 -69 -20 -20 -11 -42 -20 -51 -20
-8 0 -17 -7 -20 -15 -4 -8 -14 -15 -23 -15 -9 0 -27 -9 -41 -20 -14 -11 -29
-20 -35 -20 -5 0 -31 -23 -57 -52 -34 -36 -48 -60 -48 -80 0 -16 -7 -31 -15
-34 -8 -4 -15 -16 -15 -29 0 -12 -6 -34 -13 -48 -17 -33 -37 -17 -37 29 0 18
-4 36 -10 39 -5 3 -10 39 -10 80 0 41 5 77 10 80 6 3 10 19 10 35 0 16 6 33
13 37 17 11 16 95 -3 110 -21 17 -35 0 -32 -41 1 -19 -2 -37 -8 -41 -5 -3 -10
-19 -10 -34 0 -15 -5 -32 -11 -38 -14 -14 -16 -197 -2 -214 10 -13 16 -36 30
-117 3 -20 -1 -45 -12 -68 -9 -19 -19 -51 -22 -70 -3 -19 -10 -37 -14 -40 -5
-3 -9 -18 -9 -33 0 -16 -7 -34 -15 -41 -8 -7 -15 -22 -15 -34 0 -12 -6 -31
-14 -42 -12 -16 -15 -16 -20 -4 -16 44 -123 353 -162 468 -25 73 -43 140 -40
148 3 8 19 14 38 14 39 1 80 30 163 118 33 34 65 62 71 62 6 0 17 6 23 14 15
18 -4 32 -34 27 -25 -4 -95 -53 -95 -67 0 -13 -52 -64 -66 -64 -5 0 -20 -12
-33 -25 -28 -30 -95 -36 -105 -9 -10 27 -7 38 29 79 19 22 35 50 35 62 0 12 5
25 10 28 6 3 10 26 10 50 0 25 5 45 13 48 10 4 10 6 0 6 -10 1 -13 27 -13 96
0 52 -4 103 -9 113 -12 24 -31 107 -31 137 0 13 -7 28 -16 33 -24 13 -15 58
11 54 11 -2 27 -10 36 -18 9 -8 18 -12 21 -9 3 3 11 -1 18 -10 7 -8 21 -15 31
-15 24 0 109 -83 109 -106 0 -10 11 -32 25 -50 14 -18 25 -39 25 -48 0 -8 5
-18 10 -21 6 -3 10 -21 10 -39 0 -17 4 -36 9 -41 5 -6 11 -23 13 -40 2 -19 9
-31 21 -33 14 -3 17 4 17 47 0 27 -4 53 -10 56 -5 3 -10 21 -10 40 0 19 -4 37
-10 40 -5 3 -10 15 -10 26 0 11 -7 22 -15 25 -8 4 -15 13 -15 21 0 27 -73 120
-118 149 -86 56 -97 63 -119 63 -12 1 -25 6 -28 11 -3 6 -17 10 -30 10 -13 0
-27 5 -30 10 -3 6 -17 10 -29 10 -13 0 -29 7 -36 15 -18 22 -338 22 -346 0 -5
-13 -23 -17 -124 -29 -14 -2 -86 -24 -159 -50 -73 -25 -139 -46 -147 -46 -17
0 -44 23 -44 38 0 5 -8 12 -17 15 -10 4 -37 18 -61 32 -23 14 -49 25 -56 25
-8 0 -16 7 -20 15 -4 12 -33 15 -169 15 -134 0 -167 -3 -177 -15z m324 -40 c3
-8 13 -15 23 -15 10 0 29 -9 43 -20 14 -11 30 -20 36 -20 5 0 22 -13 37 -28
l27 -28 -109 -36 -109 -36 -32 20 c-18 10 -34 28 -37 39 -3 10 -9 19 -14 19
-13 0 -118 108 -111 114 3 3 58 6 123 6 95 0 118 -3 123 -15z m926 9 c0 -3
-19 -25 -42 -50 -44 -45 -72 -55 -82 -29 -3 8 -30 27 -61 42 -30 15 -55 31
-55 35 0 4 54 8 120 8 66 0 120 -3 120 -6z m-1124 -124 c44 -44 79 -83 79 -86
0 -4 -69 -30 -152 -59 l-153 -53 0 38 c0 22 5 42 10 45 6 3 10 21 10 39 0 19
7 39 15 46 8 7 15 26 15 43 0 41 26 67 65 67 27 0 45 -13 111 -80z m1226 63
c10 -9 18 -30 18 -48 0 -18 6 -38 14 -44 13 -11 20 -37 32 -126 4 -22 10 -44
15 -49 12 -14 12 -243 -1 -251 -5 -3 -10 -16 -10 -29 0 -21 -45 -75 -54 -65
-2 2 -45 123 -95 268 l-92 265 48 48 c52 52 91 62 125 31z m-1442 -22 c0 -16
-7 -34 -15 -41 -8 -7 -15 -21 -15 -31 0 -22 -19 -105 -31 -134 -4 -11 -9 -28
-11 -38 -2 -14 -32 -28 -113 -56 -60 -21 -119 -42 -130 -46 -16 -7 -18 -6 -7
6 6 7 12 27 12 45 0 17 7 37 15 44 8 7 15 20 15 29 0 9 9 27 20 41 11 14 20
33 20 43 0 24 85 107 109 107 10 0 24 7 31 15 7 8 16 13 20 10 5 -3 12 0 15 6
7 10 41 27 58 28 4 1 7 -12 7 -28z m327 -356 c3 -9 3 -18 1 -21 -12 -11 -346
-122 -352 -117 -3 4 -6 14 -6 23 0 14 37 31 158 73 171 61 190 65 199 42z
m909 -35 c52 -144 114 -327 114 -337 0 -9 -16 -13 -48 -13 -53 0 -78 -15 -61
-37 7 -7 25 -13 40 -13 29 0 29 0 15 -28 -8 -16 -31 -42 -50 -59 -20 -17 -36
-34 -36 -40 0 -5 -15 -24 -34 -42 -33 -32 -34 -33 -45 -13 -6 12 -11 35 -11
52 0 17 -7 38 -15 46 -8 9 -15 31 -15 49 0 19 -5 46 -10 61 -14 35 -8 39 30
21 27 -14 60 -14 60 0 0 13 -22 43 -33 43 -7 1 -24 11 -38 23 -28 23 -26 15
-45 218 l-6 57 74 25 c40 14 79 25 87 24 8 -1 20 -18 27 -37z m-1868 -36 c12
-4 22 -10 22 -14 0 -14 -295 -113 -350 -117 l-55 -4 39 36 c22 19 48 35 58 35
10 0 18 4 18 9 0 37 190 76 268 55z m1627 -21 c4 -10 7 -36 6 -59 -2 -26 3
-45 13 -53 14 -12 23 -61 12 -61 -12 0 -131 134 -131 148 0 8 15 21 35 28 48
17 57 17 65 -3z m-1065 -47 c0 -20 -8 -27 -47 -40 -26 -9 -47 -16 -49 -16 -1
0 -4 9 -7 19 -4 16 4 25 37 40 53 27 66 26 66 -3z m910 -1 c0 -9 7 -18 15 -21
8 -4 15 -12 15 -19 0 -14 137 -145 151 -145 5 0 9 -27 9 -59 0 -33 5 -63 10
-66 6 -3 10 -26 10 -50 0 -24 5 -47 10 -50 6 -3 10 -26 10 -50 0 -24 5 -47 10
-50 15 -9 12 -35 -4 -35 -8 0 -23 -11 -34 -25 -11 -14 -24 -25 -29 -25 -4 0
-29 -17 -55 -37 -195 -158 -180 -142 -174 -182 4 -20 9 -54 12 -76 3 -22 9
-49 14 -60 16 -37 22 -89 27 -219 3 -83 0 -133 -6 -139 -6 -6 -11 -19 -11 -28
0 -9 -14 -43 -30 -75 -24 -44 -28 -59 -18 -66 21 -13 38 -9 44 10 3 9 14 34
25 55 10 22 19 45 19 52 0 7 7 15 15 19 12 4 15 33 15 171 0 138 -3 167 -15
171 -10 4 -15 20 -15 44 0 22 -4 42 -10 45 -5 3 -10 32 -10 65 0 57 1 59 48
98 26 21 61 46 77 55 17 8 37 25 45 36 8 12 19 21 24 21 5 0 24 12 43 26 19
14 35 24 36 23 1 -2 8 -14 15 -26 6 -13 12 -29 12 -37 0 -7 7 -19 15 -26 8 -7
15 -21 15 -31 0 -10 8 -33 18 -51 10 -18 24 -53 32 -78 7 -25 17 -49 21 -54
10 -12 -40 -81 -113 -159 -32 -34 -58 -63 -58 -64 0 -2 -18 -26 -40 -54 -22
-28 -47 -67 -56 -87 -9 -20 -20 -45 -25 -54 -10 -20 -12 -211 -2 -221 16 -17
33 19 33 70 0 57 17 141 31 158 5 5 9 17 9 26 0 9 7 19 15 23 8 3 15 13 15 22
0 21 54 87 162 201 70 74 88 98 88 122 0 16 -4 33 -10 36 -5 3 -10 17 -10 29
0 13 -7 29 -15 36 -8 7 -15 21 -15 31 0 11 -4 19 -10 19 -5 0 -10 9 -10 20 0
11 -4 28 -9 38 -5 9 -12 24 -15 32 -4 8 -15 29 -25 45 -36 56 -38 52 113 218
39 43 74 85 77 94 3 9 51 -117 107 -280 56 -162 105 -302 108 -310 4 -12 -7
-16 -58 -21 -142 -12 -169 -18 -174 -35 -3 -9 -10 -24 -15 -33 -5 -10 -9 -24
-9 -32 0 -7 -6 -18 -13 -24 -7 -6 -19 -41 -27 -77 -8 -37 -17 -68 -22 -71 -4
-3 -8 -15 -8 -27 -1 -12 -14 -44 -31 -72 -16 -27 -37 -67 -46 -87 -10 -21 -23
-38 -30 -38 -7 0 -13 -6 -13 -13 0 -8 -20 -24 -44 -36 -49 -25 -106 -74 -106
-90 0 -25 51 -8 119 40 72 51 140 129 141 160 0 9 7 19 15 23 8 3 15 12 15 21
0 8 5 24 10 35 6 11 15 29 20 40 6 11 10 30 10 43 0 13 7 32 15 43 8 10 15 29
15 41 0 12 5 25 10 28 6 3 10 18 10 33 1 47 28 69 95 77 33 3 79 9 103 12 27
3 42 1 42 -6 0 -6 20 -66 44 -134 35 -96 44 -131 39 -163 -4 -35 -10 -42 -37
-52 -18 -7 -42 -12 -53 -12 -11 0 -26 -7 -34 -16 -8 -10 -23 -14 -41 -12 -16
3 -33 -1 -39 -9 -6 -7 -20 -13 -30 -13 -11 0 -27 -4 -37 -9 -9 -5 -33 -17 -52
-26 -90 -42 -132 -77 -197 -162 -45 -59 -54 -77 -49 -98 8 -33 25 -28 45 13 9
17 21 32 26 32 6 0 16 14 23 30 20 43 62 83 124 114 29 15 60 30 68 35 49 26
62 31 84 31 14 0 28 5 31 10 3 6 22 10 41 10 22 0 37 6 40 15 4 8 17 15 30 15
13 0 39 9 59 20 l35 20 13 -33 c11 -25 11 -33 2 -37 -7 -3 -60 -50 -118 -106
-61 -58 -128 -112 -159 -128 -29 -15 -66 -36 -83 -46 -22 -13 -50 -19 -101
-19 -85 -1 -136 -16 -132 -40 3 -13 15 -16 68 -14 72 2 147 11 170 21 8 3 20
6 25 7 21 1 155 104 252 193 l103 94 11 -28 c45 -117 124 -362 121 -376 -2
-13 -13 -18 -37 -18 -19 0 -37 5 -40 10 -3 6 -23 10 -43 10 -21 0 -46 6 -57
14 -11 7 -40 17 -65 21 -80 12 -263 17 -284 7 -12 -6 -28 -13 -36 -16 -8 -4
-28 -15 -45 -25 -16 -11 -37 -20 -45 -20 -8 -1 -25 -9 -38 -19 -40 -31 -5 -64
38 -37 46 29 107 55 130 55 14 0 30 4 36 10 20 20 100 23 135 6 17 -9 54 -16
80 -16 26 0 50 -4 53 -9 7 -11 94 -23 178 -25 l67 -1 26 -73 c15 -41 24 -76
21 -79 -2 -3 -17 13 -33 36 -27 39 -30 40 -84 41 -38 0 -61 -5 -69 -15 -8 -9
-29 -15 -56 -15 -23 0 -46 -4 -49 -10 -3 -5 -27 -10 -53 -10 -26 0 -65 -5 -87
-11 -40 -11 -152 0 -200 21 -11 4 -27 11 -35 14 -8 4 -28 15 -45 25 -54 35
-101 17 -54 -20 34 -27 120 -69 140 -69 9 0 22 -7 29 -15 16 -19 226 -22 232
-3 2 6 26 15 54 19 27 4 76 12 109 19 127 24 119 24 137 -7 9 -15 31 -42 48
-60 16 -18 30 -39 30 -47 0 -8 9 -21 20 -29 11 -8 31 -40 44 -73 l24 -58 -25
-13 c-14 -7 -32 -13 -39 -13 -8 0 -22 -4 -32 -9 -9 -5 -24 -12 -32 -15 -8 -4
-28 -15 -45 -25 -16 -11 -42 -20 -57 -20 -15 -1 -30 -5 -33 -11 -19 -30 -88
14 -199 128 -23 23 -45 42 -50 42 -5 0 -39 22 -76 49 -37 28 -71 47 -75 43 -3
-3 -10 0 -15 8 -6 9 -22 14 -44 12 -21 -2 -45 3 -58 12 -30 21 -121 21 -138 0
-11 -12 -10 -18 4 -32 12 -12 38 -18 99 -20 45 -2 91 -7 102 -11 96 -39 158
-84 273 -195 51 -50 101 -94 110 -98 24 -9 86 2 95 18 4 8 19 14 32 14 14 0
39 9 57 20 18 11 41 20 51 20 10 0 20 7 23 15 4 8 16 15 28 15 12 0 27 5 34
12 19 19 27 4 75 -137 24 -71 72 -208 105 -303 53 -152 58 -174 45 -187 -8 -8
-24 -15 -36 -15 -22 0 -81 -17 -109 -31 -26 -13 -40 -11 -68 11 -14 11 -38 20
-53 20 -15 0 -30 7 -33 15 -4 8 -19 15 -34 15 -16 0 -31 4 -34 9 -3 5 -22 12
-41 15 -19 3 -50 9 -69 12 l-34 6 -6 86 c-14 233 -21 281 -45 306 -13 14 -29
22 -36 20 -7 -3 -15 2 -18 10 -4 10 -18 16 -36 16 -16 0 -33 5 -36 10 -3 6
-21 10 -40 10 -19 0 -37 5 -40 10 -3 6 -19 10 -35 10 -15 0 -30 7 -34 15 -3 8
-16 15 -28 15 -13 0 -34 9 -48 20 -14 11 -30 20 -37 20 -7 0 -24 11 -39 25
-15 14 -32 25 -39 25 -6 0 -22 20 -35 44 -12 25 -29 47 -36 50 -8 3 -14 12
-14 19 0 19 -36 50 -49 42 -22 -13 -9 -52 38 -114 50 -63 121 -131 139 -131
10 0 50 -21 97 -50 17 -10 42 -19 57 -19 15 -1 30 -5 33 -11 3 -5 22 -10 41
-10 19 0 34 -4 34 -10 0 -5 10 -10 22 -10 39 0 97 -33 98 -55 0 -11 6 -30 14
-41 8 -11 17 -53 20 -94 3 -41 8 -103 12 -137 5 -57 -1 -75 -19 -57 -4 4 -46
6 -93 5 -57 -2 -89 2 -94 9 -4 6 -36 14 -71 17 -69 7 -88 20 -89 64 0 15 -6
32 -14 39 -8 6 -12 18 -10 25 3 8 -1 24 -10 37 -9 12 -16 35 -16 50 0 15 -4
30 -10 33 -5 3 -10 16 -11 28 0 12 -9 36 -19 52 -21 33 -39 64 -63 109 -21 38
-172 146 -204 146 -22 0 -24 -2 -13 -15 7 -8 9 -15 6 -15 -4 0 23 -21 60 -46
98 -67 98 -67 165 -204 47 -96 51 -109 66 -197 3 -18 11 -38 19 -44 8 -6 14
-17 14 -24 0 -6 7 -26 16 -43 14 -29 20 -32 59 -32 25 0 45 -5 47 -12 3 -8 40
-15 99 -20 190 -15 209 -22 209 -79 0 -14 7 -32 16 -40 9 -8 13 -21 10 -35 -4
-14 -1 -26 8 -31 7 -4 16 -21 18 -38 3 -16 8 -37 12 -46 6 -13 -39 -32 -275
-113 l-282 -97 -28 27 c-16 15 -29 34 -29 41 0 7 -11 20 -25 29 -35 23 -32 53
10 114 6 8 17 33 24 55 18 56 40 103 51 110 6 3 10 19 10 35 0 16 5 32 10 35
6 3 10 17 10 31 0 18 -26 52 -90 118 -49 51 -90 98 -90 104 0 7 -4 12 -10 12
-5 0 -16 12 -25 27 -9 16 -24 42 -35 58 -48 76 -60 112 -69 220 -5 62 -9 80
-21 80 -12 0 -16 -19 -18 -102 -2 -87 0 -106 18 -137 11 -20 20 -42 20 -48 0
-16 71 -108 152 -196 110 -120 121 -137 109 -161 -6 -12 -15 -30 -21 -41 -5
-11 -10 -26 -10 -35 0 -8 -9 -30 -20 -50 -11 -20 -20 -44 -20 -54 0 -10 -7
-21 -15 -25 -8 -3 -15 -16 -15 -28 0 -13 -7 -32 -15 -42 -13 -17 -18 -18 -40
-6 -14 8 -42 28 -62 46 -20 18 -48 38 -62 46 -14 7 -30 19 -34 26 -5 7 -26 24
-48 37 -38 25 -39 26 -39 85 0 32 5 62 10 65 5 3 10 23 10 44 0 22 6 44 15 51
12 10 15 42 15 171 0 91 -4 160 -10 164 -9 5 -15 19 -57 113 -9 20 -21 32 -33
32 -24 0 -37 -20 -20 -30 7 -4 10 -12 6 -18 -3 -6 -2 -13 3 -17 14 -8 41 -65
41 -85 0 -9 5 -21 11 -27 14 -14 6 -251 -10 -313 -11 -41 -20 -85 -37 -181 -6
-34 -3 -38 57 -88 35 -29 74 -57 86 -62 13 -5 26 -16 29 -24 4 -9 20 -23 38
-32 67 -35 121 -93 86 -93 -5 0 -10 -22 -10 -49 0 -28 -4 -53 -10 -56 -5 -3
-10 -17 -10 -30 0 -25 5 -23 -382 -156 -183 -63 -191 -62 -196 17 -1 27 -7 58
-12 69 -5 11 -11 38 -14 60 -3 22 -10 71 -15 109 -10 68 -10 69 16 90 15 11
38 27 51 33 26 14 46 29 160 124 74 62 86 87 57 115 -9 9 -15 34 -15 60 0 24
-4 52 -9 62 -29 57 -46 332 -21 347 6 3 10 16 11 28 0 12 9 36 20 52 43 68 46
95 9 95 -12 0 -24 -12 -33 -32 -42 -94 -48 -108 -57 -113 -6 -4 -10 -70 -10
-158 1 -118 4 -156 15 -171 8 -11 15 -37 15 -57 0 -21 5 -41 10 -44 6 -3 10
-31 10 -62 0 -57 -18 -93 -46 -93 -8 0 -21 -11 -30 -25 -9 -14 -21 -25 -28
-25 -6 0 -35 -20 -65 -44 -80 -66 -98 -74 -116 -50 -8 10 -15 27 -15 37 0 9
-4 25 -9 35 -5 9 -12 24 -15 32 -4 8 -15 29 -25 45 -11 17 -20 39 -20 51 -1
11 -6 25 -12 31 -6 6 -12 29 -13 51 -1 36 7 48 86 135 95 105 168 198 168 214
0 10 16 43 33 71 12 18 11 202 -1 214 -20 20 -32 -4 -32 -64 0 -141 -62 -259
-227 -430 -94 -98 -111 -131 -79 -157 7 -6 11 -22 8 -36 -3 -17 1 -27 12 -31
9 -3 16 -12 16 -20 0 -8 5 -24 12 -37 24 -48 28 -57 28 -76 0 -11 4 -22 9 -26
14 -8 41 -65 41 -86 0 -10 -11 -26 -25 -37 -14 -11 -25 -24 -25 -28 0 -5 -29
-40 -64 -77 l-64 -68 -12 33 c-20 56 -180 520 -180 523 0 1 18 5 40 9 22 3 40
11 40 16 0 6 20 10 45 10 39 0 47 4 55 24 5 13 14 27 20 31 5 3 8 11 4 16 -3
6 1 18 9 27 8 9 17 31 20 47 18 95 18 94 72 207 21 43 44 83 51 89 8 6 14 16
14 21 0 5 6 15 13 21 26 25 115 87 125 87 10 0 32 31 32 44 0 20 -57 -1 -119
-44 -66 -47 -119 -105 -142 -155 -5 -11 -18 -33 -28 -50 -11 -16 -20 -40 -20
-52 -1 -12 -5 -24 -10 -27 -5 -3 -11 -20 -14 -38 -14 -77 -20 -98 -33 -109 -8
-6 -14 -23 -14 -38 -1 -44 -20 -57 -89 -64 -35 -3 -67 -10 -71 -17 -12 -19
-25 8 -83 177 l-55 162 24 15 c13 9 34 16 48 16 14 0 28 5 31 10 3 6 19 10 35
10 16 0 32 5 35 10 3 6 18 10 33 11 15 0 41 9 57 20 17 10 37 22 45 25 61 25
83 39 128 84 90 89 133 166 101 185 -14 9 -49 -24 -49 -47 0 -10 -6 -18 -13
-18 -8 0 -24 -20 -37 -44 -13 -27 -33 -49 -50 -56 -16 -7 -31 -18 -34 -26 -3
-8 -13 -14 -23 -14 -10 0 -29 -9 -43 -20 -14 -11 -35 -20 -46 -20 -12 0 -24
-7 -28 -15 -3 -9 -18 -15 -35 -15 -16 0 -33 -4 -36 -10 -3 -5 -21 -10 -40 -10
-19 0 -37 -4 -40 -10 -3 -5 -17 -10 -30 -10 -13 0 -27 -5 -30 -10 -11 -18 -23
-10 -35 23 -11 32 -11 32 82 122 52 50 107 97 123 105 17 8 34 21 38 27 4 7
14 13 22 13 8 0 30 9 50 20 26 15 54 20 105 20 38 0 80 4 95 10 31 12 43 38
24 51 -19 13 -132 5 -137 -9 -2 -7 -21 -12 -43 -12 -22 0 -47 -4 -57 -9 -9 -5
-24 -12 -32 -15 -44 -16 -140 -87 -210 -155 -72 -70 -80 -76 -89 -65 -5 5 -36
89 -70 188 -49 143 -58 177 -44 171 17 -6 59 -15 177 -34 28 -4 52 -13 54 -19
6 -19 216 -16 232 3 7 8 21 15 31 15 10 0 34 9 54 20 20 11 40 20 45 20 5 0
21 11 35 24 46 43 8 62 -50 26 -16 -11 -43 -26 -60 -34 -40 -19 -179 -41 -202
-31 -10 3 -52 11 -93 16 -41 6 -94 12 -117 15 -23 3 -47 12 -54 20 -6 8 -28
14 -49 14 -34 0 -39 4 -49 31 -6 18 -11 33 -11 35 0 1 28 5 63 8 110 11 122
13 144 24 12 7 42 12 66 12 24 0 59 7 76 16 35 17 115 14 135 -6 6 -6 22 -10
38 -10 15 0 43 -9 63 -20 20 -11 42 -20 49 -20 8 0 16 -6 19 -13 8 -20 52 -14
52 7 0 17 -17 29 -85 60 -19 9 -42 20 -50 25 -50 29 -71 32 -176 28 -134 -6
-193 -15 -219 -33 -11 -8 -36 -14 -57 -14 -20 0 -40 -4 -43 -10 -3 -5 -21 -10
-39 -10 -29 0 -35 6 -63 58 -30 57 -93 228 -93 254 0 13 43 38 67 38 7 0 28 9
48 20 20 11 46 20 59 20 13 0 29 7 36 15 7 8 20 15 29 15 9 0 72 -52 141 -115
68 -63 130 -115 137 -115 6 0 24 -11 39 -25 15 -14 34 -25 43 -25 10 0 21 -4
26 -9 12 -11 88 -22 175 -24 58 -2 65 0 65 18 0 24 -29 33 -125 35 -53 1 -84
7 -105 20 -16 10 -52 31 -80 45 -27 15 -60 38 -71 51 -12 13 -25 24 -30 24 -5
0 -46 37 -92 82 -81 81 -83 83 -129 81 -25 -1 -50 -6 -56 -12 -6 -6 -21 -11
-33 -11 -13 0 -26 -4 -29 -10 -3 -5 -23 -17 -43 -26 -20 -8 -45 -20 -54 -25
-10 -5 -24 -9 -31 -9 -8 0 -53 117 -119 308 -89 259 -103 308 -90 310 10 2 21
8 27 13 5 5 22 9 37 9 16 0 31 7 34 15 7 18 44 20 44 3 0 -16 46 -38 76 -38
13 0 26 -4 29 -10 3 -5 19 -10 34 -10 16 0 34 -7 41 -15 7 -8 23 -15 36 -15
12 0 26 -4 29 -10 3 -5 21 -10 40 -10 l33 0 6 -87 c14 -220 22 -272 41 -293
23 -26 72 -50 100 -50 13 0 25 -7 29 -15 3 -9 18 -15 40 -15 19 0 38 -4 41
-10 3 -5 19 -10 35 -10 16 0 32 -4 35 -10 3 -5 15 -10 25 -10 10 0 31 -11 46
-25 15 -14 33 -25 41 -25 36 0 133 -94 133 -129 0 -6 7 -11 15 -11 8 0 15 -6
15 -12 1 -20 38 -60 50 -53 19 12 9 50 -25 95 -20 25 -45 60 -56 78 -12 17
-26 32 -32 32 -6 0 -19 7 -29 17 -20 18 -46 34 -98 58 -19 9 -43 21 -52 26
-10 5 -26 9 -37 9 -10 0 -24 6 -30 13 -6 8 -23 12 -41 9 -21 -3 -32 0 -36 12
-3 9 -15 16 -26 16 -12 0 -38 5 -59 12 -32 9 -39 16 -39 37 0 15 -7 37 -16 49
-11 17 -15 40 -12 87 1 36 -1 66 -6 68 -5 2 -11 30 -14 63 l-4 60 98 -4 c55
-2 112 -7 128 -13 16 -5 50 -9 75 -9 40 0 48 -4 59 -27 6 -15 12 -35 12 -44 0
-9 6 -22 14 -28 8 -6 17 -27 20 -46 3 -19 9 -51 12 -70 3 -19 10 -38 15 -41 5
-3 9 -13 9 -23 0 -10 7 -24 15 -31 8 -7 13 -16 10 -20 -3 -4 2 -13 10 -20 8
-7 15 -20 15 -29 1 -30 67 -107 133 -154 99 -71 171 -76 96 -7 -17 15 -51 38
-75 51 -24 12 -44 28 -44 36 0 7 -4 13 -10 13 -5 0 -10 7 -10 15 0 7 -6 18
-12 22 -7 4 -19 19 -27 33 -41 73 -61 115 -61 129 0 10 -4 21 -8 26 -5 6 -15
37 -22 70 -7 33 -20 68 -28 77 -8 10 -12 24 -9 32 3 8 0 17 -8 20 -7 2 -15 15
-17 28 -3 25 -23 30 -198 47 -198 20 -197 20 -221 121 -7 30 -19 62 -26 71 -7
8 -13 25 -13 37 0 12 -4 31 -10 42 -5 11 -15 29 -20 40 -16 32 -8 97 21 165 4
11 9 29 11 40 3 16 33 30 153 73 179 63 216 70 234 48 7 -9 22 -16 31 -16 10
0 20 -6 22 -14 3 -13 43 -60 170 -200 42 -46 45 -67 17 -111 -10 -16 -21 -37
-25 -45 -3 -8 -10 -23 -15 -32 -5 -10 -9 -27 -9 -38 0 -11 -4 -20 -10 -20 -5
0 -10 -8 -10 -19 0 -10 -6 -24 -14 -30 -8 -6 -16 -24 -20 -39 -20 -98 -26 -82
76 -189 107 -113 158 -176 158 -196 0 -8 7 -17 15 -21 8 -3 15 -14 15 -24 0
-10 4 -22 9 -27 14 -17 31 -101 31 -158 0 -35 5 -59 14 -66 22 -19 27 0 29
109 2 72 -1 101 -10 105 -7 2 -13 11 -13 19 0 21 -35 83 -76 133 -19 23 -34
44 -34 48 0 3 -15 21 -32 39 -18 17 -59 63 -90 100 -49 60 -55 71 -46 90 24
46 28 56 28 69 0 18 28 75 41 82 5 4 9 17 9 30 0 13 5 27 10 30 6 3 10 13 10
21 0 8 7 26 16 39 l16 25 32 -25 c18 -14 38 -25 44 -25 6 0 19 -10 29 -23 10
-13 25 -26 33 -29 8 -3 41 -27 73 -52 l57 -47 0 -59 c0 -32 -4 -62 -10 -65 -5
-3 -10 -23 -10 -44 0 -20 -7 -46 -15 -57 -21 -28 -22 -319 0 -328 8 -3 15 -12
15 -20 0 -9 9 -31 20 -51 11 -20 20 -42 20 -50 0 -17 39 -30 51 -18 11 11 1
39 -30 88 -11 17 -20 39 -20 50 -1 12 -6 26 -12 32 -6 6 -9 56 -6 139 6 142
14 211 28 220 5 3 9 24 9 48 0 23 7 51 15 62 35 46 35 46 -248 264 l-46 35 6
60 c3 33 9 64 14 69 5 6 9 29 9 52 0 24 5 46 10 49 6 3 10 30 10 58 l0 52 80
73 c70 64 90 77 172 106 109 39 118 41 118 21z m-1841 -122 c-54 -71 -57 -73
-69 -58 -9 11 -9 15 -1 15 6 0 11 8 11 18 0 25 20 42 48 42 22 0 23 -2 11 -17z
m1496 7 c-3 -5 -11 -10 -16 -10 -6 0 -7 5 -4 10 3 6 11 10 16 10 6 0 7 -4 4
-10z m2059 -3 c24 -17 24 -121 1 -147 -8 -9 -15 -33 -15 -53 0 -20 -4 -39 -10
-42 -5 -3 -10 -21 -11 -38 0 -18 -9 -45 -20 -62 -10 -16 -22 -37 -26 -45 -3
-8 -15 -27 -25 -42 -10 -14 -18 -33 -18 -42 0 -9 -7 -16 -15 -16 -9 0 -12 -6
-9 -15 4 -8 1 -15 -6 -15 -7 0 -21 -11 -32 -25 -11 -14 -30 -25 -43 -25 -13 0
-27 -4 -30 -10 -3 -5 -14 -10 -24 -10 -10 0 -24 -7 -31 -15 -7 -8 -24 -15 -39
-15 -15 0 -31 -4 -36 -9 -24 -21 -62 -20 -108 4 -42 21 -49 22 -54 8 -4 -10 3
-24 20 -37 15 -12 27 -26 27 -32 0 -11 -98 -44 -130 -44 -10 0 -22 -4 -25 -10
-3 -5 -20 -10 -36 -10 -17 0 -32 -6 -35 -15 -4 -8 -10 -12 -15 -9 -15 9 -10
54 6 60 8 4 15 17 15 30 0 13 4 33 9 46 5 13 15 44 22 71 8 26 17 47 22 47 4
0 18 -12 31 -27 40 -46 65 -2 26 47 -20 26 -26 65 -12 74 4 3 14 28 22 56 8
28 20 56 27 62 7 6 13 24 13 40 0 22 13 42 54 84 30 30 62 54 72 54 9 0 31 10
48 23 50 37 128 67 172 67 12 0 29 7 38 15 8 8 30 15 50 15 19 0 38 5 41 10 9
14 68 12 89 -3z m-2151 -63 c-15 -13 -33 -23 -40 -24 -11 0 -33 -30 -33 -43 0
-10 33 -17 44 -9 6 5 21 12 34 15 19 4 22 2 17 -11 -7 -17 -21 -92 -32 -166
-7 -52 -27 -73 -51 -55 -27 21 -52 47 -52 55 0 4 -15 21 -34 38 -18 17 -41 43
-51 59 l-17 27 29 0 c16 0 34 5 41 12 21 21 -6 38 -59 38 -47 0 -62 11 -38 26
7 4 69 26 138 49 105 36 127 40 129 28 2 -9 -9 -26 -25 -39z m-773 -258 c0
-42 -16 -55 -35 -30 -27 35 -18 56 28 63 4 0 7 -14 7 -33z m-90 -15 c0 -11 5
-23 10 -26 6 -3 10 -17 10 -30 0 -13 5 -27 10 -30 16 -10 11 -45 -11 -76 -11
-16 -19 -37 -17 -46 5 -28 33 -26 48 2 20 37 34 31 49 -22 7 -27 17 -58 22
-71 5 -13 9 -31 9 -41 0 -10 7 -24 15 -31 15 -13 20 -51 8 -63 -3 -4 -11 1
-18 9 -6 9 -24 17 -38 17 -15 0 -30 3 -33 8 -3 5 -15 9 -27 9 -35 0 -122 35
-122 48 0 7 11 18 25 25 16 9 24 20 22 33 -5 27 -3 27 -57 -1 -48 -24 -86 -25
-109 -4 -6 5 -22 9 -37 9 -15 0 -29 7 -33 15 -3 8 -16 15 -28 15 -34 1 -63 29
-82 83 -10 27 -17 50 -15 51 2 2 33 13 69 24 36 12 121 41 190 66 69 25 128
45 133 45 4 1 7 -8 7 -18z m-300 -306 c7 -8 25 -15 41 -15 16 0 29 -4 29 -10
0 -5 -6 -10 -14 -10 -7 0 -19 -7 -26 -15 -20 -24 -40 -18 -55 17 -18 45 -3 66
25 33z m2753 -757 c12 -6 29 -15 37 -20 8 -4 27 -13 43 -19 15 -6 27 -13 27
-16 0 -16 -86 -120 -93 -113 -3 4 -43 123 -55 168 -4 15 12 15 41 0z m-2399
-867 c-2 -3 -10 1 -16 7 -7 7 -20 12 -29 12 -9 0 -22 7 -29 15 -7 8 -20 15
-30 15 -24 0 -80 29 -80 42 0 20 36 73 68 102 17 16 32 36 33 45 0 9 20 -40
44 -109 24 -68 42 -126 39 -129z m186 -523 c0 -10 -4 -18 -10 -18 -5 0 -10 15
-10 33 0 24 3 28 10 17 5 -8 10 -23 10 -32z m-80 -97 c0 -16 -7 -34 -15 -41
-8 -7 -15 -23 -15 -36 0 -12 -4 -26 -10 -29 -5 -3 -10 -15 -10 -26 0 -33 -24
-99 -36 -99 -7 0 -14 9 -17 20 -6 24 -34 37 -50 21 -8 -8 -5 -21 11 -52 24
-44 28 -74 12 -84 -5 -3 -10 -17 -10 -30 0 -13 -4 -27 -10 -30 -5 -3 -10 -14
-10 -24 0 -10 -7 -24 -15 -31 -8 -7 -15 -20 -15 -30 0 -28 -30 -79 -57 -98
-14 -9 -33 -25 -44 -34 -10 -10 -24 -18 -30 -18 -6 0 -23 -8 -37 -18 -15 -10
-34 -22 -42 -25 -8 -4 -22 -11 -30 -16 -25 -14 -85 -31 -113 -31 -14 0 -29 -4
-32 -10 -3 -5 -23 -10 -44 -10 -22 0 -44 -6 -51 -15 -17 -20 -54 -19 -71 3
-25 31 -40 62 -29 62 5 0 10 18 10 39 0 22 5 43 10 46 6 3 10 24 10 45 0 21 5
42 10 45 6 3 10 21 11 38 0 18 9 46 19 62 11 17 33 58 49 91 36 72 95 134 129
134 12 0 25 7 28 15 4 8 17 15 29 15 13 0 27 5 30 10 3 6 19 10 34 10 15 0 31
4 36 9 19 17 61 20 86 7 44 -23 76 -27 82 -12 6 15 -6 29 -35 39 -34 12 -18
33 37 50 31 9 65 17 76 17 11 0 22 7 25 15 4 8 19 15 34 15 16 0 32 5 35 10
12 19 25 10 25 -19z m2125 19 c3 -5 17 -10 29 -10 13 0 29 -7 36 -15 7 -8 23
-15 36 -15 13 0 33 -4 46 -9 13 -5 35 -12 51 -15 30 -7 36 -33 10 -43 -30 -10
-42 -24 -36 -39 6 -16 25 -13 79 11 20 10 40 12 60 6 l29 -8 -30 -13 c-84 -34
-171 -59 -188 -54 -12 4 -27 -2 -43 -17 -13 -12 -25 -21 -27 -18 -12 16 -27
64 -27 84 0 13 -4 27 -10 30 -5 3 -10 22 -10 41 0 24 -5 34 -15 34 -10 0 -15
10 -15 30 0 29 13 40 25 20z m505 -69 c0 -14 -12 -22 -44 -30 -55 -13 -83 -14
-91 -2 -7 12 48 38 90 44 17 2 33 5 38 6 4 0 7 -7 7 -18z m-1952 -343 c6 -13
13 -39 16 -58 8 -57 24 -133 31 -157 6 -19 4 -21 -17 -16 -12 4 -27 12 -31 20
-9 15 -17 16 -36 4 -24 -15 -2 -50 45 -71 66 -28 57 -49 -36 -82 -41 -15 -80
-27 -85 -27 -9 -1 -65 140 -65 161 0 4 15 8 33 10 47 4 43 32 -5 36 -21 2 -38
8 -38 13 0 5 19 30 43 56 23 26 60 66 81 90 22 24 43 43 46 43 4 0 12 -10 18
-22z m799 -10 c18 -18 33 -36 33 -40 0 -10 -62 -38 -83 -38 -13 0 -14 28 -1
88 6 29 12 28 51 -10z m1392 -321 c-2 -1 -13 -9 -24 -17 -19 -14 -19 -14 -6 3
7 9 18 17 24 17 6 0 8 -1 6 -3z m-2431 -200 c35 -100 76 -221 91 -269 l28 -86
-61 -61 c-46 -46 -69 -61 -90 -61 -34 0 -65 34 -66 71 0 15 -7 32 -15 39 -8 7
-15 27 -15 46 0 18 -4 36 -10 39 -5 3 -10 24 -10 45 0 21 -4 42 -10 45 -6 4
-10 58 -10 130 0 72 4 126 10 130 6 3 10 13 10 21 0 18 71 106 79 98 3 -3 34
-87 69 -187z m2338 88 c-22 -19 -46 -35 -54 -35 -8 0 -31 -12 -50 -27 -27 -20
-53 -29 -116 -36 -45 -6 -95 -7 -111 -3 -28 7 -28 8 -10 19 40 22 321 115 350
116 l30 0 -39 -34z m-666 -229 c0 -19 -4 -38 -10 -41 -5 -3 -10 -13 -10 -21 0
-9 -11 -30 -25 -48 -14 -18 -25 -40 -25 -49 0 -19 -87 -107 -106 -107 -7 0
-29 -9 -49 -20 -20 -11 -42 -20 -50 -20 -8 0 -15 -5 -15 -11 0 -5 -4 -7 -10
-4 -15 9 -12 51 4 64 8 7 16 28 19 49 7 46 22 110 32 139 4 14 23 28 49 38 62
23 180 63 189 64 4 1 7 -14 7 -33z m-300 -105 c0 -17 -4 -33 -10 -36 -5 -3
-10 -21 -10 -39 0 -19 -7 -39 -15 -46 -8 -7 -15 -23 -15 -37 0 -40 -28 -73
-64 -73 -26 0 -45 14 -111 80 -43 44 -77 81 -74 83 10 9 265 96 282 96 12 1
17 -7 17 -28z m-255 -181 l89 -90 -121 0 c-106 0 -127 3 -165 23 -23 12 -45
25 -46 30 -2 4 -19 14 -38 22 -19 8 -34 18 -34 24 0 5 21 17 48 27 26 10 67
25 92 35 25 10 54 18 65 18 12 0 55 -35 110 -89z m-937 -8 c20 -21 52 -44 69
-51 18 -7 30 -17 27 -22 -3 -5 -62 -9 -132 -9 l-126 0 59 60 c33 33 61 60 63
60 1 0 19 -17 40 -38z"/>
<path d="M459 3684 c-6 -8 -21 -14 -32 -14 -41 0 -161 -41 -169 -58 -2 -4 -21
-16 -43 -27 -33 -17 -41 -27 -43 -54 l-3 -32 38 24 c21 13 52 32 68 43 17 10
33 19 37 19 4 0 13 6 20 13 6 6 27 12 44 12 18 0 36 5 39 10 3 6 19 10 36 10
29 0 74 34 65 49 -10 16 -45 19 -57 5z"/>
<path d="M4581 3689 l-24 -9 23 -25 c13 -14 33 -25 44 -25 33 -1 115 -25 127
-37 6 -6 18 -9 25 -6 8 3 14 0 14 -5 0 -6 12 -17 28 -25 15 -8 41 -22 57 -31
27 -14 30 -14 33 0 6 26 -5 42 -44 60 -20 10 -48 28 -62 41 -16 14 -37 23 -58
23 -18 0 -36 5 -39 10 -3 6 -20 10 -37 10 -17 0 -39 6 -47 14 -11 10 -23 11
-40 5z"/>
<path d="M170 2660 c0 -35 43 -71 62 -52 8 8 4 21 -16 47 -33 43 -46 44 -46 5z"/>
<path d="M4864 2655 c-20 -26 -24 -39 -16 -47 19 -19 62 17 62 52 0 39 -13 38
-46 -5z"/>
<path d="M198 2508 c-20 -14 -28 -28 -28 -50 0 -29 1 -30 21 -17 11 8 28 26
37 41 23 38 5 53 -30 26z"/>
<path d="M4844 2517 c-7 -18 21 -64 47 -78 17 -8 19 -6 19 20 0 22 -8 35 -30
51 -25 18 -31 19 -36 7z"/>
<path d="M170 1592 c0 -31 16 -52 38 -52 8 0 35 -15 61 -33 25 -18 71 -38 101
-45 30 -7 72 -18 93 -24 28 -9 40 -9 49 0 18 18 -19 52 -56 52 -17 0 -42 7
-54 16 -13 9 -32 14 -42 11 -11 -3 -24 1 -31 9 -6 8 -16 14 -21 14 -5 0 -35
18 -67 40 -31 22 -60 40 -64 40 -4 0 -7 -13 -7 -28z"/>
<path d="M4863 1598 c-8 -13 -33 -29 -85 -55 -15 -8 -30 -18 -33 -23 -3 -4
-14 -6 -24 -3 -11 3 -30 -2 -43 -11 -12 -9 -37 -16 -54 -16 -33 0 -71 -31 -59
-49 8 -13 39 -14 63 -2 9 5 44 15 77 22 33 7 67 19 77 26 9 8 40 27 70 42 41
22 54 33 56 54 3 21 -1 27 -17 27 -11 0 -24 -6 -28 -12z"/>
</g>
</svg>
